<mxfile host="app.diagrams.net" modified="2023-06-06T02:53:08.149Z" agent="Mozilla/5.0 (Windows NT 10.0; Win64; x64) AppleWebKit/537.36 (KHTML, like Gecko) Chrome/114.0.0.0 Safari/537.36" version="21.1.6" etag="gTQ1tc7xKV2ZKvypqjjk" type="github">
  <diagram name="第 1 页" id="0GSHwEfm7-DHKQL5fRBT">
    <mxGraphModel>
      <root>
        <mxCell id="0" />
        <mxCell id="1" parent="0" />
      </root>
    </mxGraphModel>
  </diagram>
</mxfile>
